<?xml version="1.0" encoding="UTF-8"?>
<svg viewBox="0 0 312.85 427.3625" xmlns="http://www.w3.org/2000/svg">
 <path d="m58.955 347.23c-67.992-104.38 14.106-113.71-6.8357-256.61 51.357 67.417 65.696 150.11 87.256 174.57 14.88 19.209 22.219 42.395 20.218 66.217-0.20173 18.854 23.625 41.698 17.11 59.3-34.644-27.749-94.232-9.6623-117.75-43.478z" fill="#e73900" fill-rule="evenodd"/>
 <path d="m161.78 377.71c0.39304-19.99-23.796-28.662-33.526-44.274-16.115-11.925-21.219-30.487-21.575-48.766-1.3098-29.234 24.748-203.54 62.711-250.36-14.548 71.886 21.569 167.64 43.883 199.32 15.1 24.614 20.776 52.953 15.337 80.838-2.6722 22.247-21.101 35.615-31.071 55.569-9.9725 12.017-23.544 13.155-35.76 7.6689z" fill="#e73900" fill-rule="evenodd"/>
 <path d="m175.56 387.49c5.7866-17.367-5.6649-44.895-9.2709-61.002-9.7833-14.504-8.838-32.016-4.1256-48.078 6.9367-25.875 8.0819-147.98 120.03-205.32-86.818 85.183-29.17 154.41-19.772 187.75 5.4905 25.333 2.6838 51.737-9.6975 74.52-17.094 31.454-62.733 48.789-77.159 52.137z" fill="#e73900" fill-rule="evenodd"/>
 <path d="m157.12 377.31c0.29729-16.32-17.999-23.4-25.359-36.145-12.189-9.7354-16.05-24.889-16.319-39.812-0.99071-23.866 23.326-150.05 42.827-204.39-13.307 123.18 20.921 136.86 37.799 162.72 11.421 20.094 15.715 43.23 11.601 65.995-2.0212 18.162-10.734 34.717-18.275 51.007-7.543 9.8103-23.035 5.0987-32.274 0.61963z" fill="#e78c00" fill-rule="evenodd"/>
 <path d="m86.963 353.93c-69.841-71.705 6.2567-76.698-13.112-175.17 23.003 46.417 42.078 81.286 50.454 114.24 12.395 11.638 55.225 82.683 52.658 95.564-26.992-15.367-69.89-13.986-90-34.633z" fill="#e78c00" fill-rule="evenodd"/>
 <path d="m100.91 349.61c-41.778-39.659-10.578-62.945-10.952-112.48 11.549 43.353 48.08 54.035 47.611 80.078 6.0349 7.7903 37.634 63.345 34.992 70.483-14.05-11.254-55.822-23.055-71.651-38.081z" fill="#e7e100" fill-rule="evenodd"/>
 <path d="m168.06 344.26c-7.3404-10.882-6.6311-24.022-3.0954-36.073 5.2046-19.414 28.071-127.32 60.738-150.79-23.591 44.36 7.4299 112.6 14.481 137.61 4.1195 19.007 5.2716 41.49-7.276 55.912-18.955 21.787-42.882 34.475-56.29 37.517-8.5236 5.9816-5.8523-32.084-8.5579-44.169z" fill="#e78c00" fill-rule="evenodd"/>
 <path d="m156.26 378.51c0.58986-9.9844-10.435-14.776-14.623-22.764-7.2194-6.2651-9.2046-15.639-8.9964-24.783-0.01014-14.637-0.50958-105.88 18.026-128.56-8.2039 35.656 22.691 88.808 32.379 105.06 6.4904 12.588 8.541 26.86 5.4534 40.695-1.6914 11.069-7.4395 20.987-12.463 30.772-4.8634 5.8179-14.231 2.546-19.776-0.42721z" fill="#e7e100" fill-rule="evenodd"/>
 <path d="m165.08 379.78c4.7458-6.9504-1.1375-15.179-0.70358-22.755-2.4993-7.6452 0.12406-15.27 4.2304-21.778 6.3258-10.568 17.442-89.101 40.633-97.45-21.349 22.183 15.724 81.495 15.681 97.418-0.76263 11.893-15.23 27.967-23.445 36.615-6.0102 7.2569-17.905 14.231-25.764 19.119-6.0272-3.6639-7.9168-6.6232-10.632-11.168z" fill="#e7e100" fill-rule="evenodd"/>
 <path d="m157.08 371.83c-14.756-23.241-9.2815-49.17-3.0063-77.451 2.8586 19.189 14.767 42.476 21.498 50.112 4.6459 5.9972 6.9372 13.236 6.3126 20.674-0.06299 5.8864-3.0512 13.019-5.0854 18.515-10.816-8.6636-12.377-1.2918-19.719-11.85z" fill="#ffff9e" fill-rule="evenodd"/>
 <path d="m173.67 360.31c11.431-25.045 0.11491-44.761 26.314-64.409-7.8236 18.215 10.07 46.976 8.1227 56.948-3.2743 16.772-25.885 29.254-31.601 30.547 1.3617-13.791-7.6802-11.174-2.836-23.087z" fill="#ffff9e" fill-rule="evenodd"/>
 <path d="m92.05 278.34c61.453 77.716 60.095 38.481 84.465 105.04-116.16-51.717-64.026-47.049-84.465-105.04z" fill="#ffff9e" fill-rule="evenodd"/>
</svg>
